<svg xmlns="http://www.w3.org/2000/svg" width="585" height="585" version="1.1">
<rect x="0" y="0" width="65" height="65" style="fill:rgb(51,255,51);stroke-width:0;stroke:rgb(255,255,255)" />
<rect x="65" y="0" width="65" height="65" style="fill:rgb(51,255,51);stroke-width:0;stroke:rgb(255,255,255)" />
<rect x="130" y="0" width="65" height="65" style="fill:rgb(255,255,255);stroke-width:0;stroke:rgb(255,255,255)" />
<rect x="195" y="0" width="65" height="65" style="fill:rgb(179,236,255);stroke-width:0;stroke:rgb(255,255,255)" />
<rect x="260" y="0" width="65" height="65" style="fill:rgb(179,236,255);stroke-width:0;stroke:rgb(255,255,255)" />
<rect x="325" y="0" width="65" height="65" style="fill:rgb(179,236,255);stroke-width:0;stroke:rgb(255,255,255)" />
<rect x="390" y="0" width="65" height="65" style="fill:rgb(165,164,168);stroke-width:0;stroke:rgb(255,255,255)" />
<rect x="455" y="0" width="65" height="65" style="fill:rgb(165,164,168);stroke-width:0;stroke:rgb(255,255,255)" />
<rect x="520" y="0" width="65" height="65" style="fill:rgb(165,164,168);stroke-width:0;stroke:rgb(255,255,255)" />
<rect x="0" y="65" width="65" height="65" style="fill:rgb(51,255,51);stroke-width:0;stroke:rgb(255,255,255)" />
<rect x="65" y="65" width="65" height="65" style="fill:rgb(51,255,51);stroke-width:0;stroke:rgb(255,255,255)" />
<rect x="130" y="65" width="65" height="65" style="fill:rgb(255,255,255);stroke-width:0;stroke:rgb(255,255,255)" />
<rect x="195" y="65" width="65" height="65" style="fill:rgb(255,255,255);stroke-width:0;stroke:rgb(255,255,255)" />
<rect x="260" y="65" width="65" height="65" style="fill:rgb(102,0,102);stroke-width:0;stroke:rgb(255,255,255)" />
<rect x="325" y="65" width="65" height="65" style="fill:rgb(179,236,255);stroke-width:0;stroke:rgb(255,255,255)" />
<rect x="390" y="65" width="65" height="65" style="fill:rgb(204,0,204);stroke-width:0;stroke:rgb(255,255,255)" />
<rect x="455" y="65" width="65" height="65" style="fill:rgb(165,164,168);stroke-width:0;stroke:rgb(255,255,255)" />
<rect x="520" y="65" width="65" height="65" style="fill:rgb(165,164,168);stroke-width:0;stroke:rgb(255,255,255)" />
<rect x="0" y="130" width="65" height="65" style="fill:rgb(0,0,255);stroke-width:0;stroke:rgb(255,255,255)" />
<rect x="65" y="130" width="65" height="65" style="fill:rgb(255,255,0);stroke-width:0;stroke:rgb(255,255,255)" />
<rect x="130" y="130" width="65" height="65" style="fill:rgb(255,255,0);stroke-width:0;stroke:rgb(255,255,255)" />
<rect x="195" y="130" width="65" height="65" style="fill:rgb(255,255,0);stroke-width:0;stroke:rgb(255,255,255)" />
<rect x="260" y="130" width="65" height="65" style="fill:rgb(102,0,102);stroke-width:0;stroke:rgb(255,255,255)" />
<rect x="325" y="130" width="65" height="65" style="fill:rgb(179,236,255);stroke-width:0;stroke:rgb(255,255,255)" />
<rect x="390" y="130" width="65" height="65" style="fill:rgb(204,0,204);stroke-width:0;stroke:rgb(255,255,255)" />
<rect x="455" y="130" width="65" height="65" style="fill:rgb(204,0,204);stroke-width:0;stroke:rgb(255,255,255)" />
<rect x="520" y="130" width="65" height="65" style="fill:rgb(165,164,168);stroke-width:0;stroke:rgb(255,255,255)" />
<rect x="0" y="195" width="65" height="65" style="fill:rgb(0,0,255);stroke-width:0;stroke:rgb(255,255,255)" />
<rect x="65" y="195" width="65" height="65" style="fill:rgb(255,255,0);stroke-width:0;stroke:rgb(255,255,255)" />
<rect x="130" y="195" width="65" height="65" style="fill:rgb(165,164,168);stroke-width:0;stroke:rgb(255,255,255)" />
<rect x="195" y="195" width="65" height="65" style="fill:rgb(255,255,0);stroke-width:0;stroke:rgb(255,255,255)" />
<rect x="260" y="195" width="65" height="65" style="fill:rgb(102,0,102);stroke-width:0;stroke:rgb(255,255,255)" />
<rect x="325" y="195" width="65" height="65" style="fill:rgb(0,128,0);stroke-width:0;stroke:rgb(255,255,255)" />
<rect x="390" y="195" width="65" height="65" style="fill:rgb(0,128,0);stroke-width:0;stroke:rgb(255,255,255)" />
<rect x="455" y="195" width="65" height="65" style="fill:rgb(204,0,204);stroke-width:0;stroke:rgb(255,255,255)" />
<rect x="520" y="195" width="65" height="65" style="fill:rgb(204,0,204);stroke-width:0;stroke:rgb(255,255,255)" />
<rect x="0" y="260" width="65" height="65" style="fill:rgb(0,0,255);stroke-width:0;stroke:rgb(255,255,255)" />
<rect x="65" y="260" width="65" height="65" style="fill:rgb(255,153,0);stroke-width:0;stroke:rgb(255,255,255)" />
<rect x="130" y="260" width="65" height="65" style="fill:rgb(255,153,0);stroke-width:0;stroke:rgb(255,255,255)" />
<rect x="195" y="260" width="65" height="65" style="fill:rgb(255,153,0);stroke-width:0;stroke:rgb(255,255,255)" />
<rect x="260" y="260" width="65" height="65" style="fill:rgb(102,0,102);stroke-width:0;stroke:rgb(255,255,255)" />
<rect x="325" y="260" width="65" height="65" style="fill:rgb(218,217,216);stroke-width:0;stroke:rgb(255,255,255)" />
<rect x="390" y="260" width="65" height="65" style="fill:rgb(0,128,0);stroke-width:0;stroke:rgb(255,255,255)" />
<rect x="455" y="260" width="65" height="65" style="fill:rgb(0,128,0);stroke-width:0;stroke:rgb(255,255,255)" />
<rect x="520" y="260" width="65" height="65" style="fill:rgb(0,128,0);stroke-width:0;stroke:rgb(255,255,255)" />
<rect x="0" y="325" width="65" height="65" style="fill:rgb(0,0,255);stroke-width:0;stroke:rgb(255,255,255)" />
<rect x="65" y="325" width="65" height="65" style="fill:rgb(0,0,255);stroke-width:0;stroke:rgb(255,255,255)" />
<rect x="130" y="325" width="65" height="65" style="fill:rgb(255,179,255);stroke-width:0;stroke:rgb(255,255,255)" />
<rect x="195" y="325" width="65" height="65" style="fill:rgb(255,153,0);stroke-width:0;stroke:rgb(255,255,255)" />
<rect x="260" y="325" width="65" height="65" style="fill:rgb(218,217,216);stroke-width:0;stroke:rgb(255,255,255)" />
<rect x="325" y="325" width="65" height="65" style="fill:rgb(218,217,216);stroke-width:0;stroke:rgb(255,255,255)" />
<rect x="390" y="325" width="65" height="65" style="fill:rgb(218,217,216);stroke-width:0;stroke:rgb(255,255,255)" />
<rect x="455" y="325" width="65" height="65" style="fill:rgb(165,164,168);stroke-width:0;stroke:rgb(255,255,255)" />
<rect x="520" y="325" width="65" height="65" style="fill:rgb(165,164,168);stroke-width:0;stroke:rgb(255,255,255)" />
<rect x="0" y="390" width="65" height="65" style="fill:rgb(165,164,168);stroke-width:0;stroke:rgb(255,255,255)" />
<rect x="65" y="390" width="65" height="65" style="fill:rgb(255,179,255);stroke-width:0;stroke:rgb(255,255,255)" />
<rect x="130" y="390" width="65" height="65" style="fill:rgb(255,179,255);stroke-width:0;stroke:rgb(255,255,255)" />
<rect x="195" y="390" width="65" height="65" style="fill:rgb(255,179,255);stroke-width:0;stroke:rgb(255,255,255)" />
<rect x="260" y="390" width="65" height="65" style="fill:rgb(255,179,255);stroke-width:0;stroke:rgb(255,255,255)" />
<rect x="325" y="390" width="65" height="65" style="fill:rgb(218,217,216);stroke-width:0;stroke:rgb(255,255,255)" />
<rect x="390" y="390" width="65" height="65" style="fill:rgb(165,164,168);stroke-width:0;stroke:rgb(255,255,255)" />
<rect x="455" y="390" width="65" height="65" style="fill:rgb(165,164,168);stroke-width:0;stroke:rgb(255,255,255)" />
<rect x="520" y="390" width="65" height="65" style="fill:rgb(165,164,168);stroke-width:0;stroke:rgb(255,255,255)" />
<rect x="0" y="455" width="65" height="65" style="fill:rgb(165,164,168);stroke-width:0;stroke:rgb(255,255,255)" />
<rect x="65" y="455" width="65" height="65" style="fill:rgb(165,164,168);stroke-width:0;stroke:rgb(255,255,255)" />
<rect x="130" y="455" width="65" height="65" style="fill:rgb(227,28,38);stroke-width:0;stroke:rgb(255,255,255)" />
<rect x="195" y="455" width="65" height="65" style="fill:rgb(227,28,38);stroke-width:0;stroke:rgb(255,255,255)" />
<rect x="260" y="455" width="65" height="65" style="fill:rgb(227,28,38);stroke-width:0;stroke:rgb(255,255,255)" />
<rect x="325" y="455" width="65" height="65" style="fill:rgb(165,164,168);stroke-width:0;stroke:rgb(255,255,255)" />
<rect x="390" y="455" width="65" height="65" style="fill:rgb(165,164,168);stroke-width:0;stroke:rgb(255,255,255)" />
<rect x="455" y="455" width="65" height="65" style="fill:rgb(165,164,168);stroke-width:0;stroke:rgb(255,255,255)" />
<rect x="520" y="455" width="65" height="65" style="fill:rgb(165,164,168);stroke-width:0;stroke:rgb(255,255,255)" />
<rect x="0" y="520" width="65" height="65" style="fill:rgb(165,164,168);stroke-width:0;stroke:rgb(255,255,255)" />
<rect x="65" y="520" width="65" height="65" style="fill:rgb(165,164,168);stroke-width:0;stroke:rgb(255,255,255)" />
<rect x="130" y="520" width="65" height="65" style="fill:rgb(165,164,168);stroke-width:0;stroke:rgb(255,255,255)" />
<rect x="195" y="520" width="65" height="65" style="fill:rgb(227,28,38);stroke-width:0;stroke:rgb(255,255,255)" />
<rect x="260" y="520" width="65" height="65" style="fill:rgb(227,28,38);stroke-width:0;stroke:rgb(255,255,255)" />
<rect x="325" y="520" width="65" height="65" style="fill:rgb(165,164,168);stroke-width:0;stroke:rgb(255,255,255)" />
<rect x="390" y="520" width="65" height="65" style="fill:rgb(165,164,168);stroke-width:0;stroke:rgb(255,255,255)" />
<rect x="455" y="520" width="65" height="65" style="fill:rgb(165,164,168);stroke-width:0;stroke:rgb(255,255,255)" />
<rect x="520" y="520" width="65" height="65" style="fill:rgb(165,164,168);stroke-width:0;stroke:rgb(255,255,255)" />
</svg>